PathFileType	4	(X/Y/Z)	OpenSim_Sub10_CSStiffKnee_Gyro.trc
DataRate	CameraRate	NumFrames	NumMarkers	Units	OrigDataRate	OrigDataStartFrame	OrigNumFrames
100	100	24	8	m	100	4088	8174
Frame#	Time	torso_imu_offset_imu	pelvis_imu_offset_imu	tibia_r_imu_offset_imu	femur_r_imu_offset_imu	tibia_l_imu_offset_imu	femur_l_imu_offset_imu	toes_r_imu_offset_imu	toes_l_imu_offset_imu
				X1	Y1	Z1	X2	Y2	Z2	X3	Y3	Z3	X4	Y4	Z4	X5	Y5	Z5	X6	Y6	Z6	X7	Y7	Z7	X8		Y8	Z8	

4088	40.87000000	-0.05771527	0.37887179	0.18345332	0.57543631	-0.23745558	0.04031214	2.25594438	0.12856073	-2.02268751	1.06562010	0.67631593	-0.28216049	0.46208616	-0.25881943	1.89266727	0.99385025	0.55829120	-0.44459658	-0.11009213	-0.03146065	0.20199609	0.76335347	-3.45976442	-0.03478947
4089	40.88000000	-0.08642593	0.25147397	0.13412771	0.72828573	-0.27159421	0.11353850	2.21274744	-0.40310418	-2.24512992	0.79318271	0.68187777	-0.27790619	0.36272799	-0.28501639	2.00752910	1.13738341	0.75975940	-0.59387001	0.54195259	-0.00570159	0.22398807	1.04071836	-3.75709344	-0.08932691
4090	40.89000000	0.05203953	0.14781515	0.14731155	0.76648284	-0.18323421	0.07969698	1.90920402	-0.24525789	-2.27532653	0.55073324	0.46227475	-0.47813129	0.25997104	-0.31825364	2.14233153	1.19109889	0.79338931	-0.75127196	-0.40708960	-0.12246348	0.27847285	1.01582979	-4.00409338	-0.05119024
4091	40.90000000	0.30609760	0.20490268	0.16979942	0.77866564	-0.04282512	0.06628454	0.61410120	-0.34527678	-1.64494586	0.27507369	0.14203652	-0.86433385	0.09007237	-0.33607776	2.23035124	1.19651375	0.77940670	-0.85956375	0.11218762	-0.06712050	0.22720467	0.62915296	-3.86333562	0.17403230
4092	40.91000000	0.43871111	0.36859140	0.26377484	0.86701896	0.10495419	0.11073449	-0.25006899	-0.51526722	-0.26666843	-0.09200968	-0.25855882	-1.44789349	-0.27746496	-0.39293087	2.28160429	1.15010230	0.85349880	-1.06946101	-0.18499832	-0.10124964	0.19309305	0.27221520	-3.91195722	0.31807219
4093	40.92000000	0.35677085	0.37650103	0.33819782	0.98250198	0.24320737	0.18966872	0.03379659	-0.55235507	0.50854708	-0.55139950	-0.50694795	-2.03106511	-0.66278255	-0.45960951	2.30956569	1.09921648	0.98207879	-1.26231083	0.01314714	-0.08439692	0.20354712	0.55454926	-3.64787465	0.52625664
4094	40.93000000	0.36212085	0.26339761	0.34174841	1.05263928	0.33749662	0.25046852	0.08540466	-0.49621212	0.13213472	-0.94557646	-0.46540737	-2.40688868	-1.12582721	-0.50104788	2.32657929	1.12665192	1.07016817	-1.48907901	-0.17810702	-0.13797494	0.27198183	-0.55332432	-3.06961254	0.74732449
4095	40.94000000	0.57842894	0.16210108	0.31058635	1.05453108	0.35733343	0.26042559	-0.97073665	-0.32071646	-0.55402325	-1.14459640	-0.18886335	-2.49186591	-1.42558119	-0.55277780	2.26746372	1.22385320	1.05221123	-1.72957140	-0.30097311	-0.21903199	0.30532000	-0.47119634	-2.84925759	0.81812008
4096	40.95000000	0.73560131	0.17148839	0.24541065	0.98135296	0.31582379	0.21816568	-1.23870030	-0.11605658	-0.62251112	-1.10315010	0.17822565	-2.31669653	-1.24974624	-0.49502964	2.16290659	1.23962103	0.89611093	-1.82743104	-0.32116400	-0.25524471	0.29097867	0.64376957	-2.00610443	0.51353950
4097	40.96000000	0.74329693	0.24984101	0.17227030	0.84512761	0.23110905	0.13241176	-0.43994019	-0.01264680	-0.11431697	-0.81856613	0.44398582	-2.01271132	-0.97141000	-0.33937859	2.05722603	1.10782991	0.63977041	-1.73188276	-0.26951990	-0.24160615	0.25884185	-0.30234955	-0.99590224	0.24020595
4098	40.97000000	0.66645875	0.26583783	0.16431360	0.70101402	0.12258114	0.02352912	-0.11378318	0.05010037	0.14401217	-0.35180922	0.57021238	-1.72063399	-0.11984432	-0.43078791	1.68673454	0.84779406	0.34748797	-1.51221054	-0.06663603	-0.22364875	0.24403743	-0.04785739	-0.35118681	0.05621608
4099	40.98000000	0.62346904	0.23386579	0.23994903	0.59642719	0.02211234	-0.09166670	-0.00730334	-0.04482041	-0.00844326	0.13845519	0.60985117	-1.48710912	1.28085566	-0.34880424	0.96218866	0.52719504	0.10177863	-1.25433642	-0.15617307	-0.24090551	0.26699034	0.51725018	0.14558231	-0.05048676
4100	40.99000000	0.71939479	0.15051798	0.35874203	0.53438358	-0.06937569	-0.20757417	-0.12981046	-0.19753409	-0.10394136	0.46104798	0.56323829	-1.30734641	1.98295883	-0.11496484	0.19000510	0.26245068	0.04940856	-0.95817832	-0.37055984	-0.26632482	0.26651250	0.45612061	0.76936241	-0.01282432
4101	41	0.85866166	0.05507473	0.45849871	0.49420391	-0.14849582	-0.32341923	-0.45179906	-0.15435182	-0.05055418	0.59844894	0.43698981	-1.19057855	2.14869632	-0.02199031	-0.40925322	0.14835772	0.19679198	-0.67472013	-0.31514755	-0.24821354	0.21780704	0.41032581	1.43550488	0.03460576
4102	41.01000000	0.90114624	0.03465430	0.49806347	0.49304703	-0.18539956	-0.43390737	-0.58614841	-0.03667820	-0.02317280	0.60053841	0.30755245	-1.16857191	2.07544655	0.07422729	-0.86473876	0.09445091	0.32090064	-0.44858796	-0.17884806	-0.21889318	0.16579257	0.26978642	1.98880391	0.07649981
4103	41.02000000	0.91031649	0.08140785	0.49084170	0.55157164	-0.16353224	-0.52587029	-0.65783431	-0.00073709	-0.02875316	0.50909921	0.20438532	-1.24308841	1.88289566	0.09772336	-1.32168503	0.04885771	0.31032537	-0.23140728	-0.14649850	-0.19972879	0.14150364	0.49871793	2.51120755	0.10180396
4104	41.03000000	0.94435265	0.15414824	0.44144370	0.62889364	-0.08694634	-0.57541316	-0.71861676	-0.02530408	-0.02507744	0.38291429	0.09023657	-1.36992123	1.85413621	0.05448756	-1.80867003	-0.05656926	0.22498663	-0.09233801	-0.12548981	-0.17584973	0.10362104	0.77519441	2.94951664	0.15619871
4105	41.04000000	0.95901921	0.20607331	0.37560665	0.69214834	-0.01195069	-0.59410776	-0.77139061	-0.04287274	-0.02829251	0.24249746	-0.03004662	-1.50591146	1.90904514	0.04724062	-2.25956402	-0.12257304	0.16613992	-0.06550370	-0.07202764	-0.14366237	0.05828813	0.74076883	3.25430745	0.25068787
4106	41.05000000	0.90367498	0.22473532	0.33718676	0.74384823	0.03644697	-0.58711616	-0.67735608	-0.06385744	-0.04544807	0.06238143	-0.09833121	-1.59021502	1.88792250	0.10229878	-2.63887728	-0.10811840	0.15171019	-0.06162262	-0.02110843	-0.10915504	0.02107925	0.59127548	3.43704411	0.33566872
4107	41.06000000	0.83493711	0.20290947	0.33293778	0.76951571	0.07988281	-0.54540523	-0.46419603	-0.09729168	-0.08061924	-0.10426777	-0.06761756	-1.57466460	1.67992648	0.20025543	-2.90578807	-0.07553041	0.16784239	-0.13592877	0.02349815	-0.05265285	-0.00371807	0.51909973	3.52303068	0.37726207
4108	41.07000000	0.75923442	0.15078891	0.32566507	0.76546644	0.13305082	-0.47254298	-0.31717452	-0.08877032	-0.12720667	-0.15847146	0.00437904	-1.45538947	1.34564211	0.30042653	-3.05764113	-0.03651910	0.21591368	-0.28228335	0.05240558	-0.00733671	-0.02560174	0.51327006	3.50488534	0.36774623
4109	41.08000000	0.66675544	0.08959507	0.31023805	0.74508208	0.18918094	-0.38454779	-0.19582080	-0.07360401	-0.18856932	-0.11023557	0.08426324	-1.27977179	0.97527950	0.37269890	-3.05710508	-0.05606074	0.28141997	-0.40063406	0.03206867	0.02420335	-0.03060561	0.45569549	3.29563578	0.33622757
4110	41.09000000	0.60413260	0.05474792	0.28595562	0.70472985	0.23062490	-0.28374298	-0.07026728	-0.10516793	-0.26236667	-0.05479772	0.15558026	-1.11204317	0.68008370	0.44432855	-2.94818722	-0.13153371	0.35102474	-0.49164696	0.04039611	0.06653680	-0.03198088	0.33355177	2.90465001	0.27944907
4111	41.10000000	0.60783732	0.00328612	0.23245198	0.65486841	0.25000588	-0.18133308	0.02927002	-0.09989017	-0.32716135	-0.03708003	0.17179052	-1.00628531	0.52687108	0.49414877	-2.81210078	-0.21025850	0.40315770	-0.56873598	0.03739400	0.10447035	-0.05022767	0.20758029	2.43008037	0.21322364
